<svg width="171" height="40" viewBox="0 0 171 40" fill="none" xmlns="http://www.w3.org/2000/svg">
<g clip-path="url(#clip0_1_358)">
<path d="M57.5625 10.9375V28H53.4492V10.9375H57.5625ZM62.6953 10.9375V14.1133H48.4336V10.9375H62.6953ZM68.4258 15.3203V28H64.4648V15.3203H68.4258ZM64.2305 12.0508C64.2305 11.4883 64.4336 11.0273 64.8398 10.668C65.2461 10.3086 65.7734 10.1289 66.4219 10.1289C67.0703 10.1289 67.5977 10.3086 68.0039 10.668C68.4102 11.0273 68.6133 11.4883 68.6133 12.0508C68.6133 12.6133 68.4102 13.0742 68.0039 13.4336C67.5977 13.793 67.0703 13.9727 66.4219 13.9727C65.7734 13.9727 65.2461 13.793 64.8398 13.4336C64.4336 13.0742 64.2305 12.6133 64.2305 12.0508ZM74.2148 15.3203L75.9961 18.8125L77.8359 15.3203H81.9375L78.6094 21.4961L82.1133 28H77.9766L75.9961 24.25L74.0273 28H69.8906L73.3945 21.4961L70.0781 15.3203H74.2148ZM87.4102 15.3203V28H83.4492V15.3203H87.4102ZM83.2148 12.0508C83.2148 11.4883 83.418 11.0273 83.8242 10.668C84.2305 10.3086 84.7578 10.1289 85.4062 10.1289C86.0547 10.1289 86.582 10.3086 86.9883 10.668C87.3945 11.0273 87.5977 11.4883 87.5977 12.0508C87.5977 12.6133 87.3945 13.0742 86.9883 13.4336C86.582 13.793 86.0547 13.9727 85.4062 13.9727C84.7578 13.9727 84.2305 13.793 83.8242 13.4336C83.418 13.0742 83.2148 12.6133 83.2148 12.0508ZM98.2969 10.9375V28H94.1836V10.9375H98.2969ZM103.43 10.9375V14.1133H89.168V10.9375H103.43ZM109.16 15.3203V28H105.199V15.3203H109.16ZM104.965 12.0508C104.965 11.4883 105.168 11.0273 105.574 10.668C105.98 10.3086 106.508 10.1289 107.156 10.1289C107.805 10.1289 108.332 10.3086 108.738 10.668C109.145 11.0273 109.348 11.4883 109.348 12.0508C109.348 12.6133 109.145 13.0742 108.738 13.4336C108.332 13.793 107.805 13.9727 107.156 13.9727C106.508 13.9727 105.98 13.793 105.574 13.4336C105.168 13.0742 104.965 12.6133 104.965 12.0508ZM116.953 25.1875C117.32 25.1875 117.633 25.1211 117.891 24.9883C118.156 24.8477 118.355 24.6523 118.488 24.4023C118.629 24.1445 118.695 23.8359 118.688 23.4766H122.402C122.41 24.4297 122.176 25.2656 121.699 25.9844C121.23 26.6953 120.59 27.25 119.777 27.6484C118.973 28.0391 118.062 28.2344 117.047 28.2344C116.055 28.2344 115.188 28.0742 114.445 27.7539C113.703 27.4258 113.082 26.9727 112.582 26.3945C112.09 25.8086 111.719 25.125 111.469 24.3438C111.227 23.5625 111.105 22.7148 111.105 21.8008V21.5312C111.105 20.6172 111.227 19.7695 111.469 18.9883C111.719 18.1992 112.09 17.5156 112.582 16.9375C113.082 16.3516 113.699 15.8984 114.434 15.5781C115.176 15.25 116.039 15.0859 117.023 15.0859C118.078 15.0859 119.008 15.2852 119.812 15.6836C120.625 16.082 121.262 16.6602 121.723 17.418C122.184 18.1758 122.41 19.0938 122.402 20.1719H118.688C118.695 19.7891 118.637 19.4453 118.512 19.1406C118.387 18.8359 118.191 18.5938 117.926 18.4141C117.668 18.2266 117.336 18.1328 116.93 18.1328C116.523 18.1328 116.195 18.2227 115.945 18.4023C115.695 18.582 115.504 18.832 115.371 19.1523C115.246 19.4648 115.16 19.8242 115.113 20.2305C115.074 20.6367 115.055 21.0703 115.055 21.5312V21.8008C115.055 22.2695 115.074 22.7109 115.113 23.125C115.16 23.5312 115.25 23.8906 115.383 24.2031C115.516 24.5078 115.707 24.75 115.957 24.9297C116.207 25.1016 116.539 25.1875 116.953 25.1875ZM128.074 9.98828V28H124.125V9.98828H128.074ZM136.184 15.3203L130.676 21.7773L127.793 24.6602L126.07 22.1523L128.473 19.0234L131.449 15.3203H136.184ZM131.953 28L128.566 22.2227L131.484 20.1484L136.477 28H131.953ZM143.121 28.2344C142.09 28.2344 141.168 28.0742 140.355 27.7539C139.543 27.4258 138.855 26.9766 138.293 26.4062C137.738 25.8359 137.312 25.1797 137.016 24.4375C136.727 23.6953 136.582 22.9102 136.582 22.082V21.6367C136.582 20.707 136.711 19.8477 136.969 19.0586C137.227 18.2617 137.609 17.5664 138.117 16.9727C138.625 16.3789 139.262 15.918 140.027 15.5898C140.793 15.2539 141.684 15.0859 142.699 15.0859C143.598 15.0859 144.402 15.2305 145.113 15.5195C145.824 15.8086 146.426 16.2227 146.918 16.7617C147.418 17.3008 147.797 17.9531 148.055 18.7188C148.32 19.4844 148.453 20.3438 148.453 21.2969V22.9023H138.094V20.4297H144.598V20.125C144.605 19.7031 144.531 19.3438 144.375 19.0469C144.227 18.75 144.008 18.5234 143.719 18.3672C143.43 18.2109 143.078 18.1328 142.664 18.1328C142.234 18.1328 141.879 18.2266 141.598 18.4141C141.324 18.6016 141.109 18.8594 140.953 19.1875C140.805 19.5078 140.699 19.8789 140.637 20.3008C140.574 20.7227 140.543 21.168 140.543 21.6367V22.082C140.543 22.5508 140.605 22.9766 140.73 23.3594C140.863 23.7422 141.051 24.0703 141.293 24.3438C141.543 24.6094 141.84 24.8164 142.184 24.9648C142.535 25.1133 142.934 25.1875 143.379 25.1875C143.918 25.1875 144.449 25.0859 144.973 24.8828C145.496 24.6797 145.945 24.3438 146.32 23.875L148.113 26.0078C147.855 26.375 147.488 26.7305 147.012 27.0742C146.543 27.418 145.98 27.6992 145.324 27.918C144.668 28.1289 143.934 28.2344 143.121 28.2344ZM156.738 15.3203V18.0625H149.098V15.3203H156.738ZM150.703 12.168H154.652V23.8633C154.652 24.1992 154.691 24.4609 154.77 24.6484C154.848 24.8281 154.98 24.957 155.168 25.0352C155.363 25.1055 155.621 25.1406 155.941 25.1406C156.168 25.1406 156.355 25.1367 156.504 25.1289C156.652 25.1133 156.793 25.0938 156.926 25.0703V27.8945C156.59 28.0039 156.238 28.0859 155.871 28.1406C155.504 28.2031 155.113 28.2344 154.699 28.2344C153.855 28.2344 153.133 28.1016 152.531 27.8359C151.938 27.5703 151.484 27.1523 151.172 26.582C150.859 26.0117 150.703 25.2695 150.703 24.3555V12.168Z" fill="black"/>
<path fill-rule="evenodd" clip-rule="evenodd" d="M33 9.84793L17.713 23C17.685 22.9519 17.6641 22.8977 17.6501 22.8376C17.6221 22.7775 17.6011 22.7234 17.5872 22.6752V22.6572C17.5732 22.6091 17.5522 22.561 17.5242 22.5129V22.4948C17.5103 22.4467 17.4963 22.3986 17.4823 22.3505L17.4614 22.3144C17.4474 22.2783 17.4334 22.2363 17.4194 22.1881C17.4194 22.1641 17.4124 22.14 17.3984 22.116C17.3984 22.0919 17.3914 22.0618 17.3775 22.0257C17.3635 22.0017 17.3565 21.9777 17.3565 21.9536C17.3425 21.9175 17.3355 21.8814 17.3355 21.8453C17.3216 21.8213 17.3145 21.7972 17.3145 21.7732C17.3006 21.7371 17.2936 21.707 17.2936 21.683C17.2796 21.6469 17.2656 21.6168 17.2517 21.5928C17.2517 21.5687 17.2517 21.5447 17.2517 21.5206C17.2377 21.4725 17.2237 21.4304 17.2097 21.3943C17.2097 21.3823 17.2097 21.3643 17.2097 21.3402C17.1957 21.3041 17.1887 21.262 17.1887 21.2139C17.1748 21.2019 17.1678 21.1839 17.1678 21.1598C17.1538 21.1237 17.1468 21.0816 17.1468 21.0335C17.1468 21.0215 17.1398 21.0094 17.1258 20.9974C17.1258 20.9493 17.1258 20.9012 17.1258 20.8531C17.1119 20.841 17.1048 20.829 17.1048 20.817C17.1048 20.7689 17.0979 20.7208 17.0839 20.6727V20.6366C17.0699 20.5885 17.0629 20.5404 17.0629 20.4922V20.4562C17.0489 20.4081 17.042 20.3599 17.042 20.3118V20.2758C17.042 20.2276 17.035 20.1795 17.021 20.1314V20.1134C17.021 20.0533 17.021 19.9991 17.021 19.951V19.933C17.021 19.8729 17.014 19.8127 17 19.7526C17 19.6924 17 19.6323 17 19.5722C17 19.512 17 19.4519 17 19.3918C17 19.3797 17 19.3617 17 19.3376C17 19.3196 17 19.2474 17 19.2294C17 19.2053 17 19.1873 17 19.1753V19.1031C17 19.0911 17 19.079 17 19.067C17 19.043 17 19.0249 17 19.0129V18.9587V18.9407V18.9227L17.021 18.9047V18.8505V18.8325C17.021 18.8204 17.021 18.8084 17.021 18.7964V18.7783V18.7603V18.7423C17.021 18.7302 17.021 18.7182 17.021 18.7062V18.6701V18.634V18.616L17.042 18.5979V18.5799V18.5438V18.5258C17.042 18.5137 17.042 18.5017 17.042 18.4897V18.4536V18.4356V18.4175L17.0629 18.3814V18.3634C17.0629 18.3514 17.0629 18.3393 17.0629 18.3273V18.2912V18.2732V18.2552V18.2191L17.0839 18.201C17.0839 18.189 17.0839 18.177 17.0839 18.1649V18.1289V18.1108V18.0928V18.0567L17.1048 18.0387V18.0206V17.9845V17.9485V17.9304L17.1258 17.8943V17.8763V17.8583C17.1258 17.8462 17.1258 17.8342 17.1258 17.8222V17.7861L17.1468 17.768V17.75V17.7139V17.6959V17.6778C17.1608 17.6658 17.1678 17.6538 17.1678 17.6418V17.6237V17.6057V17.5876V17.5516H17.1887V17.5154C17.1887 17.5034 17.1887 17.4914 17.1887 17.4794L17.2097 17.4433V17.4252V17.3892L17.2307 17.3531V17.335C17.2307 17.323 17.2307 17.305 17.2307 17.2809V17.2629L17.2517 17.2448V17.2268V17.1907C17.2656 17.1667 17.2726 17.1426 17.2726 17.1185L17.2936 17.0825V17.0644V17.0283L17.3145 16.9923C17.3145 16.9802 17.3145 16.9682 17.3145 16.9562V16.9201L17.3355 16.9021V16.884V16.866L17.3565 16.8299V16.7938L26.1848 9.19847C26.2128 9.19847 26.2407 9.19847 26.2687 9.19847L26.2897 9.18041C26.3176 9.18041 26.3386 9.18041 26.3526 9.18041L26.3945 9.1624C26.4085 9.1624 26.4295 9.1624 26.4574 9.1624H26.4784C26.5063 9.15037 26.5273 9.14434 26.5413 9.14434H26.5832C26.6112 9.13231 26.6321 9.12628 26.6461 9.12628H26.6671C26.6951 9.12628 26.723 9.12029 26.751 9.10826H26.772C26.7999 9.10826 26.8279 9.10826 26.8558 9.10826L26.8768 9.09021C26.9048 9.09021 26.9327 9.09021 26.9607 9.09021C26.9886 9.07818 27.0166 9.07219 27.0446 9.07219H27.0655C27.0935 9.07219 27.1214 9.07219 27.1494 9.07219H27.1704C27.1983 9.06016 27.2263 9.05413 27.2543 9.05413H27.2752C27.3032 9.05413 27.3311 9.05413 27.3591 9.05413C27.3871 9.0421 27.415 9.03607 27.443 9.03607H27.464C27.4919 9.03607 27.5199 9.03607 27.5478 9.03607H27.5688C27.5968 9.03607 27.6247 9.03009 27.6527 9.01806C27.6946 9.01806 27.7296 9.01806 27.7575 9.01806C27.7855 9.01806 27.8204 9.01806 27.8624 9.01806C27.8903 9.01806 27.9253 9.01806 27.9672 9.01806C27.9952 9.00603 28.0232 9 28.0511 9C28.0931 9 28.128 9 28.156 9C28.1979 9 28.2329 9 28.2608 9C28.2888 9 28.3237 9 28.3657 9C28.3936 9 28.4286 9 28.4705 9C28.5404 9 28.6103 9 28.6802 9C28.7501 9 28.827 9 28.9109 9C28.9808 9.01203 29.0507 9.01806 29.1206 9.01806C29.1905 9.01806 29.2604 9.02405 29.3303 9.03607H29.3512C29.4211 9.03607 29.4841 9.03607 29.54 9.03607L29.5609 9.05413C29.6308 9.05413 29.7007 9.06016 29.7706 9.07219H29.7916C29.8475 9.07219 29.9104 9.07818 29.9803 9.09021H30.0013C30.0712 9.10223 30.1341 9.10826 30.19 9.10826L30.232 9.12628C30.2879 9.12628 30.3438 9.13231 30.3997 9.14434L30.4417 9.1624C30.4976 9.1624 30.5535 9.16838 30.6094 9.18041C30.6234 9.18041 30.6374 9.18041 30.6514 9.18041C30.7073 9.19244 30.7632 9.20446 30.8191 9.21649C30.8331 9.21649 30.8541 9.22252 30.8821 9.23454C30.924 9.24657 30.9729 9.2526 31.0288 9.2526C31.0428 9.26463 31.0638 9.27062 31.0917 9.27062C31.1337 9.28265 31.1756 9.29466 31.2176 9.30669C31.2455 9.30669 31.2735 9.31272 31.3014 9.32475C31.3434 9.33678 31.3853 9.34281 31.4273 9.34281C31.4552 9.35484 31.4832 9.36082 31.5111 9.36082C31.5531 9.37285 31.588 9.38487 31.616 9.3969C31.6579 9.40893 31.6929 9.42099 31.7208 9.43302C31.7488 9.43302 31.7838 9.439 31.8257 9.45103C31.8537 9.46306 31.8886 9.47508 31.9305 9.4871C31.9585 9.49913 31.9865 9.50516 32.0144 9.50516C32.0564 9.51719 32.0913 9.52921 32.1193 9.54124C32.1612 9.55326 32.1962 9.56528 32.2241 9.57731C32.2521 9.58934 32.287 9.6014 32.329 9.61343C32.3569 9.61343 32.3849 9.61942 32.4128 9.63144C32.4548 9.64347 32.4967 9.65549 32.5387 9.66752C32.5527 9.67954 32.5736 9.69161 32.6016 9.70363C32.6435 9.71566 32.6854 9.72768 32.7274 9.73971C32.7553 9.75173 32.7833 9.76375 32.8113 9.77578C32.8532 9.78781 32.8882 9.79983 32.9161 9.81185C32.9441 9.82388 32.972 9.8359 33 9.84793V9.84793Z" fill="#090D33"/>
<path d="M38 13.7526L22.4454 29C21.0148 28.0322 19.8462 26.7484 19 25.2671C24.1849 20.1715 29.3765 15.0825 34.5748 10C35.9852 10.9678 37.1538 12.2516 38 13.7526V13.7526Z" fill="#090D33"/>
<path fill-rule="evenodd" clip-rule="evenodd" d="M12 19.6901C12 10.4706 19.4349 3 28.6193 3C34.9608 3 40.4675 6.59274 43.2705 11.8393C44.1253 13.4361 44.7217 15.1849 45 17.0478L39.8909 21.9332L25.1801 36C23.3512 35.6198 21.6416 34.9355 20.091 34.004C15.2404 31.0956 12 25.773 12 19.6901V19.6901ZM24.0072 30.2782L39.3542 15.5841C37.7241 11.231 33.5295 8.13249 28.6193 8.13249C22.2578 8.13249 17.109 13.303 17.109 19.6901C17.109 24.4234 19.9518 28.4913 24.0072 30.2782Z" fill="#FF983A"/>
<path d="M27 36L45 20C44.9165 24.4362 42.9327 28.4455 39.7796 31.3225L39.362 31.6937C36.2506 34.3666 32.116 36 27.5638 36C27.3689 36 27.181 36 27 36Z" fill="#090D33"/>
</g>
<defs>
<clipPath id="clip0_1_358">
<rect width="171" height="40" fill="white"/>
</clipPath>
</defs>
</svg>
